<?xml version="1.0" encoding="iso-8859-1"?>
<!-- Generator: Adobe Illustrator 17.1.0, SVG Export Plug-In . SVG Version: 6.00 Build 0)  -->
<!DOCTYPE svg PUBLIC "-//W3C//DTD SVG 1.1//EN" "http://www.w3.org/Graphics/SVG/1.1/DTD/svg11.dtd">
<svg version="1.1" id="Layer_1" xmlns="http://www.w3.org/2000/svg" xmlns:xlink="http://www.w3.org/1999/xlink" x="0px" y="0px"
	 viewBox="0 0 64 64" style="enable-background:new 0 0 64 64;" xml:space="preserve">
<path d="M58.204,15.053c-1.429-3.832-5.391-3.572-6.43-3.507l-3.28-0.593l1.607,2.034c0,0-6.259,10.759-15.807,10.759
	s-24.076-2.366-24.076,8.936c0,0-0.006,2.617,1.942,5.052c0,0,0.776,3.598-5.848,7.592c-1.023,1.51,0.388,6.232,0.388,8.716
	c0,2.484,3.019,4.139,4.188,1.849c1.169-2.289-2.339,0.632-2.339-7.941c1.169-0.487,6.43-6.041,7.209-7.21
	c0.525-0.208,1.948,2.046,2.046,4.189c0,0,1.948-3.41-1.007-5.131c0.942-1.299,0.585-1.104,1.104-2.306
	c0.52-1.202,3.02,3.637,0.844,7.859c-1.364,2.403,0.227,4.319,0.844,5.651c0.617,1.331,2.143,4.319,4.027,4.319
	s1.819-1.429,1.754-1.754c0.032-1.461-4.904,0.065-4.904-5.586c0-3.41,4.741-1.202,6.592-13.38
	c4.871,3.605,6.722,5.358,11.399,5.456l0.52,14.256c0,0,0.26,2.111,2.988,2.111s0.325-2.143-0.585-3.247
	c-0.909-1.104-1.299-10.067-0.52-10.132c0.779-0.065,0.779,6.625,1.039,8.313c0.26,1.689,0.39,3.962,2.468,4.027
	s1.429-1.948-0.26-2.728c-1.689-0.779-0.844-11.496-0.455-12.6s5.716-0.195,5.716-12.6c0.13-7.339,7.079-8.638,8.768-7.209
	c1.104,0.455,4.611,1.039,4.092-2.013C62.166,16.222,59.633,18.885,58.204,15.053z"/>
</svg>
