<?xml version="1.0" encoding="iso-8859-1"?>
<!-- Generator: Adobe Illustrator 16.0.0, SVG Export Plug-In . SVG Version: 6.00 Build 0)  -->
<!DOCTYPE svg PUBLIC "-//W3C//DTD SVG 1.1//EN" "http://www.w3.org/Graphics/SVG/1.1/DTD/svg11.dtd">
<svg version="1.1" id="Layer_1" xmlns="http://www.w3.org/2000/svg" xmlns:xlink="http://www.w3.org/1999/xlink" x="0px" y="0px"
	 width="100px" height="100px" viewBox="0 0 100 100" style="enable-background:new 0 0 100 100;" xml:space="preserve">
<g>
	<circle style="fill-rule:evenodd;clip-rule:evenodd;" cx="70.175" cy="11.374" r="10.595"/>
	<path style="fill-rule:evenodd;clip-rule:evenodd;" d="M90.961,50.649l-4.899-22.869c-0.913-4.261-5.233-6.306-8.902-6.413
		c0,0-1.323,0.01-2.438,0.222c-1.166,0.223-2.188,0.784-2.188,0.784c-2.703,1.31-5.29,4.02-5.607,7.308
		c-1.113,10.537-10.577,23.491-10.665,23.612c-1.345,1.831-0.949,4.406,0.882,5.75c0.733,0.538,1.586,0.798,2.431,0.798
		c1.265,0,2.513-0.582,3.319-1.68c0.251-0.342,3.919-5.386,7.192-12.13l1.862,8.691c0.597,2.791,2.557,4.582,4.875,5.505
		l0.02,33.391c0.002,3.097,2.513,5.605,5.609,5.605c0.001,0,0.002,0,0.003,0c3.099-0.001,5.608-2.515,5.606-5.612L88.039,58.32
		C90.248,56.436,91.614,53.702,90.961,50.649z"/>
	<path style="fill-rule:evenodd;clip-rule:evenodd;" d="M54.321,91.122h-9.729v-3.896l-11.62-6.663h-15.29l-4.75-3.816
		c-1.075-0.862-2.645-0.691-3.508,0.383s-0.691,2.645,0.382,3.507l4.847,3.894v4.07c-0.001,0.031,0,0.062,0,0.093v0.168
		c0,0.006,0.015,0.02,0.018,0.027c0.064,0.713,0.423,1.395,1.06,1.833l2.56,1.76l-5.316,0.006c-1.378,0.002-2.493,1.122-2.491,2.5
		c0.002,1.376,1.119,2.49,2.495,2.49c0.001,0,0.003,0,0.004,0l13.326-0.021c1.092-0.002,2.056-0.714,2.379-1.757
		s-0.07-2.176-0.97-2.794l-4.282-2.892l0.518-0.428l4.605,2.305c1.376,0.946,1.991,2.621,1.591,4.224h13.444
		c0.002,0,0.005-0.001,0.007-0.001h10.72c1.379,0,2.495-1.117,2.495-2.495C56.816,92.239,55.7,91.122,54.321,91.122z"/>
	<path style="fill-rule:evenodd;clip-rule:evenodd;" d="M51.05,75.491c-1.542-1.453-2.059-3.153-3.79-4.385
		c-0.303-0.215-0.607-0.433-0.929-0.614c-0.193-0.108-0.254-0.234-0.233-0.444c0.073-0.715,0.146-1.43,0.203-2.147
		c0.103-1.284-0.268-2.451-1.298-3.208c-0.414-0.304-2.454-1.293-3.343,2.09c-0.194,0.736-0.456,1.468-0.806,2.139
		c-1.283,2.466-2.912,4.718-4.472,7.013c-0.712,1.046-1.422,2.092-2.131,3.136l10.911,6.214c0,0,2.102-2.299,2.398-2.17
		c0.41,0.181,0.821,0.358,1.232,0.537c1.201,0.522,2.453,0.765,3.766,0.688c2.23-0.13,4.553-1.314,4.765-3.988
		C57.519,77.896,51.571,75.982,51.05,75.491z"/>
</g>
</svg>
