<?xml version="1.0" encoding="UTF-8" standalone="no"?>
<svg width="102px" height="102px" viewBox="0 0 102 102" version="1.1" xmlns="http://www.w3.org/2000/svg" xmlns:xlink="http://www.w3.org/1999/xlink">
    <!-- Generator: Sketch 3.7.1 (28215) - http://www.bohemiancoding.com/sketch -->
    <title>Group 3</title>
    <desc>Created with Sketch.</desc>
    <defs></defs>
    <g id="Page-1" stroke="none" stroke-width="1" fill="none" fill-rule="evenodd">
        <g id="Group-3">
            <rect id="Rectangle-1" fill="#D8D8D8" x="0" y="0" width="102" height="102"></rect>
            <g id="Group-2" opacity="0.326434235" transform="translate(18.000000, 26.000000)" fill="#000000">
                <g id="dog57">
                    <g id="Layer_1">
                        <g id="Group">
                            <path d="M12.1281356,23.0219756 C14.2607797,23.1010732 13.2342034,40.2973415 13.2342034,41.1731463 C13.2342034,41.1731463 16.8669661,45.8536585 28.5533559,45.8536585 L29.1847458,45.8536585 C40.8722712,45.8536585 44.5050339,41.1525122 44.5050339,41.1525122 C44.5050339,40.4440732 43.8350339,28.9783659 44.7048983,24.5695366 C41.9431356,22.1507561 40.0807627,18.7151707 39.7139661,14.8382439 C36.6864746,14.1710732 33.1967966,13.7560976 29.1858814,13.7560976 L28.5544915,13.7560976 C7.54828814,13.7560976 0.757440678,25.0636098 0.757440678,25.0636098 L11.4967458,30.08 C11.4967458,30.08 10.5485254,23.0219756 12.1281356,23.0219756 L12.1281356,23.0219756 Z M38.0696271,24.8916585 C39.0950678,24.8916585 39.9251864,25.7307805 39.9251864,26.7647805 C39.9251864,27.7987805 39.0939322,28.6379024 38.0696271,28.6379024 C37.045322,28.6379024 36.2140678,27.7987805 36.2140678,26.7647805 C36.2140678,25.7307805 37.0441864,24.8916585 38.0696271,24.8916585 L38.0696271,24.8916585 Z M22.9469322,32.7039756 C25.0795763,31.1896585 28.346678,31.4384146 28.346678,31.4384146 L29.2494746,31.4235122 C29.2494746,31.4235122 32.4359492,31.1896585 34.5685932,32.7039756 C36.7012373,34.2182927 29.3380508,36.5797561 29.3380508,36.5797561 L28.748678,36.713878 L28.1831525,36.5648537 C28.1831525,36.566 20.8142881,34.2182927 22.9469322,32.7039756 L22.9469322,32.7039756 Z M19.1165763,24.8916585 C20.1420169,24.8916585 20.9721356,25.7307805 20.9721356,26.7647805 C20.9721356,27.7987805 20.1408814,28.6379024 19.1165763,28.6379024 C18.0911356,28.6379024 17.2610169,27.7987805 17.2610169,26.7647805 C17.2610169,25.7307805 18.0922712,24.8916585 19.1165763,24.8916585 L19.1165763,24.8916585 Z" id="Shape"></path>
                            <path d="M46.5218475,25.9256585 C46.5218475,27.8411951 46.2424915,29.9447317 46.2424915,29.9447317 L50.9722373,27.7976341 C49.3710508,27.4227805 47.874339,26.783122 46.5218475,25.9256585 L46.5218475,25.9256585 Z" id="Shape"></path>
                            <path d="M54.2688644,25.897 C54.6061356,25.897 54.9388644,25.8729268 55.269322,25.846561 C61.6241017,25.3307073 66.6241186,19.9727073 66.6241186,13.4248049 C66.6241186,6.53643902 61.0926441,0.952609756 54.2688644,0.952609756 C47.4450847,0.952609756 41.9136102,6.53643902 41.9136102,13.4248049 C41.9136102,14.1126098 41.9828814,14.7832195 42.0896271,15.4412195 C43.0469322,21.3678049 48.1275763,25.897 54.2688644,25.897 L54.2688644,25.897 Z M49.9661017,11.4634146 L53.3728814,11.4634146 L53.3728814,8.02439024 C53.3728814,7.39160976 53.8816271,6.87804878 54.5084746,6.87804878 C55.135322,6.87804878 55.6440678,7.39160976 55.6440678,8.02439024 L55.6440678,11.4634146 L59.0508475,11.4634146 C59.6776949,11.4634146 60.1864407,11.9769756 60.1864407,12.6097561 C60.1864407,13.2425366 59.6776949,13.7560976 59.0508475,13.7560976 L55.6440678,13.7560976 L55.6440678,17.195122 C55.6440678,17.8279024 55.135322,18.3414634 54.5084746,18.3414634 C53.8816271,18.3414634 53.3728814,17.8279024 53.3728814,17.195122 L53.3728814,13.7560976 L49.9661017,13.7560976 C49.3392542,13.7560976 48.8305085,13.2425366 48.8305085,12.6097561 C48.8305085,11.9769756 49.3392542,11.4634146 49.9661017,11.4634146 L49.9661017,11.4634146 Z" id="Shape"></path>
                        </g>
                    </g>
                </g>
            </g>
        </g>
    </g>
</svg>