<?xml version="1.0" encoding="UTF-8" standalone="no"?>
<svg width="108px" height="93px" viewBox="0 0 108 93" version="1.1" xmlns="http://www.w3.org/2000/svg" xmlns:xlink="http://www.w3.org/1999/xlink">
    <!-- Generator: Sketch 39.1 (31720) - http://www.bohemiancoding.com/sketch -->
    <title>binoculars</title>
    <desc>Created with Sketch.</desc>
    <defs>
        <filter x="-50%" y="-50%" width="200%" height="200%" filterUnits="objectBoundingBox" id="filter-1">
            <feOffset dx="0" dy="2" in="SourceAlpha" result="shadowOffsetOuter1"></feOffset>
            <feGaussianBlur stdDeviation="2" in="shadowOffsetOuter1" result="shadowBlurOuter1"></feGaussianBlur>
            <feColorMatrix values="0 0 0 0 0   0 0 0 0 0   0 0 0 0 0  0 0 0 0.5 0" type="matrix" in="shadowBlurOuter1" result="shadowMatrixOuter1"></feColorMatrix>
            <feMerge>
                <feMergeNode in="shadowMatrixOuter1"></feMergeNode>
                <feMergeNode in="SourceGraphic"></feMergeNode>
            </feMerge>
        </filter>
    </defs>
    <g id="Page-1" stroke="none" stroke-width="1" fill="none" fill-rule="evenodd">
        <g id="binoculars" transform="translate(4.000000, 2.000000)" fill="#D6D6D6">
            <g id="Capa_1" filter="url(#filter-1)">
                <g id="Group">
                    <path d="M61.3292434,10.3885481 C64.2331288,9.1002045 67.5255624,8.38445808 70.7770961,8.38445808 C72.6584867,8.38445808 74.4580777,8.60940695 76.1554192,9.03885481 C76.8302658,9.20245399 77.4846626,8.62985685 77.3824131,7.93456033 L77.1370143,5.97137014 L77.1370143,5.97137014 C76.9325153,2.6993865 73.190184,0.0613496933 68.7116564,0.0613496933 C64.1104294,0.0613496933 59.7137014,2.82208589 59.7137014,6.23721881 L59.9182004,9.50920245 C59.9795501,10.2249489 60.6952965,10.6748466 61.3292434,10.3885481 L61.3292434,10.3885481 Z" id="Shape"></path>
                    <path d="M99.6523517,66.6462168 L99.5501022,66.0531697 C99.5501022,66.0122699 99.5296524,65.9713701 99.5296524,65.9304703 L95.7464213,46.7075665 C95.2556237,42.2699387 92.0245399,38.404908 87.3210634,36.0122699 L85.5214724,22.0449898 C85.5214724,16.1145194 78.8139059,11.2678937 70.7770961,11.2678937 C62.7402863,11.2678937 55.0920245,16.0736196 55.0920245,22.0245399 C55.0920245,22.3108384 55.1124744,22.6175869 55.1533742,22.9038855 L55.2556237,24.4171779 C53.6605317,23.8445808 51.8404908,23.5173824 49.9182004,23.5173824 C47.9754601,23.5173824 46.1554192,23.8445808 44.5398773,24.4376278 L44.6421268,22.9038855 C44.6830266,22.6175869 44.7034765,22.3312883 44.7034765,22.0245399 C44.7034765,16.0940695 37.0347648,11.2678937 29.0184049,11.2678937 C20.9815951,11.2678937 14.2740286,16.1145194 14.2740286,22.0449898 L12.4744376,36.0122699 C7.77096115,38.3844581 4.5398773,42.2699387 4.04907975,46.7075665 L0.265848671,65.9304703 C0.265848671,65.9713701 0.245398773,66.0122699 0.245398773,66.0531697 L0.143149284,66.6462168 L0.143149284,66.6462168 C0.0613496933,67.2597137 0,67.8732106 0,68.5071575 C0,77.6278119 9.55010225,85.0306748 21.3087935,85.0306748 C33.0674847,85.0306748 42.6175869,77.6278119 42.6175869,68.5071575 L42.6175869,68.5071575 L42.6175869,68.5071575 L42.6175869,60.9406953 C44.7239264,61.9222904 47.2392638,62.4744376 49.9182004,62.4744376 C52.597137,62.4744376 55.0920245,61.9222904 57.198364,60.9611452 L57.198364,68.5071575 L57.198364,68.5071575 L57.198364,68.5071575 C57.198364,77.6278119 66.7484663,85.0306748 78.5071575,85.0306748 C90.2453988,85.0306748 99.8159509,77.6278119 99.8159509,68.5071575 C99.795501,67.8732106 99.7341513,67.2597137 99.6523517,66.6462168 L99.6523517,66.6462168 Z M21.3087935,79.0797546 C12.9856851,79.0797546 5.95092025,74.2331288 5.95092025,68.5071575 C5.95092025,62.7607362 12.9856851,57.9345603 21.3087935,57.9345603 C29.6319018,57.9345603 36.6666667,62.7811861 36.6666667,68.5071575 C36.6666667,74.2331288 29.6319018,79.0797546 21.3087935,79.0797546 L21.3087935,79.0797546 Z M49.9182004,57.2392638 C46.4212679,57.2392638 43.5787321,55.2556237 43.5787321,52.8220859 C43.5787321,50.3885481 46.4212679,48.404908 49.9182004,48.404908 C53.4151329,48.404908 56.2576687,50.3885481 56.2576687,52.8220859 C56.2576687,55.2556237 53.4151329,57.2392638 49.9182004,57.2392638 L49.9182004,57.2392638 Z M78.4867076,79.0797546 C70.1635992,79.0797546 63.1288344,74.2331288 63.1288344,68.5071575 C63.1288344,62.7607362 70.1635992,57.9345603 78.4867076,57.9345603 C86.809816,57.9345603 93.8445808,62.7811861 93.8445808,68.5071575 C93.8445808,74.2331288 86.809816,79.0797546 78.4867076,79.0797546 L78.4867076,79.0797546 Z" id="Shape"></path>
                    <path d="M23.6196319,9.03885481 C25.3169734,8.60940695 27.1370143,8.38445808 28.997955,8.38445808 C32.2494888,8.38445808 35.5623722,9.1002045 38.4458078,10.3885481 C39.0797546,10.6748466 39.795501,10.2249489 39.8364008,9.52965235 L40.0408998,6.25766871 C40.0408998,2.84253579 35.6441718,0.081799591 31.0429448,0.081799591 C26.5644172,0.081799591 22.8425358,2.7198364 22.6175869,5.99182004 L22.6175869,5.99182004 L22.3721881,7.95501022 C22.2903885,8.62985685 22.9243354,9.22290389 23.6196319,9.03885481 L23.6196319,9.03885481 Z" id="Shape"></path>
                </g>
            </g>
        </g>
    </g>
</svg>