<?xml version="1.0" encoding="iso-8859-1"?>
<!-- Generator: Adobe Illustrator 19.0.0, SVG Export Plug-In . SVG Version: 6.00 Build 0)  -->
<svg version="1.1" id="Capa_1" xmlns="http://www.w3.org/2000/svg" xmlns:xlink="http://www.w3.org/1999/xlink" x="0px" y="0px"
	 viewBox="0 0 233.125 233.125" style="enable-background:new 0 0 233.125 233.125;" xml:space="preserve">
<path fill="#d6d6d6" d="M160.776,56.074c-3.802-14.879-14.453-26.858-29.453-31.865V0h-30v24.21c-14,5.006-25.318,16.985-29.12,31.865
	c-29.605,15.865-49.712,47.096-49.712,82.969c0,51.877,42.247,94.082,94.124,94.082s94.02-42.205,94.02-94.082
	C210.634,103.171,190.381,71.939,160.776,56.074z M116.656,51.669c8.662,0,15.709,7.047,15.709,15.709s-7.047,15.709-15.709,15.709
	s-15.709-7.047-15.709-15.709S107.994,51.669,116.656,51.669z M160.15,145.059c-6.965,11.055-43.449,33.192-43.449,33.192
	s-36.619-22.232-43.539-33.192c-3.464-5.487-5.922-11.542-5.515-19.501c0.722-14.088,11.759-25.723,25.275-25.723
	c13.896,0,23.734,10.34,23.734,10.34s10.434-10.34,23.733-10.34c13.517,0,24.552,11.635,25.275,25.723
	C166.072,133.517,163.622,139.548,160.15,145.059z"/>
</svg>
