<?xml version="1.0" encoding="UTF-8" standalone="no"?>
<svg width="101px" height="79px" viewBox="0 0 101 79" version="1.1" xmlns="http://www.w3.org/2000/svg" xmlns:xlink="http://www.w3.org/1999/xlink">
    <!-- Generator: Sketch 39.1 (31720) - http://www.bohemiancoding.com/sketch -->
    <title>first-aid-kit</title>
    <desc>Created with Sketch.</desc>
    <defs></defs>
    <g id="Page-1" stroke="none" stroke-width="1" fill="none" fill-rule="evenodd">
        <g id="first-aid-kit" transform="translate(0.995401, 0.000000)" fill="#D6D6D6">
            <g id="Capa_1" transform="translate(0.000000, 0.000000)">
                <g id="Group">
                    <path d="M99.9954007,74.7471854 L99.9954007,29.4874218 L0,29.4874218 L0,74.7471854 C0,76.8169157 1.6707461,78.4876618 3.74047634,78.4876618 L96.2549244,78.4876618 C98.3246546,78.4876618 99.9954007,76.8169157 99.9954007,74.7471854 L99.9954007,74.7471854 Z M66.1565581,55.4962006 C66.1565581,57.5660555 64.4859367,59.2366769 62.4160818,59.2366769 L55.2343672,59.2366769 L55.2343672,66.5181375 C55.2343672,68.5878677 53.5636211,70.2586138 51.4938909,70.2586138 L48.5015098,70.2586138 C46.4317796,70.2586138 44.7610335,68.5878677 44.7610335,66.5181375 L44.7610335,59.2366769 L37.5793189,59.2366769 C35.509464,59.2366769 33.8388426,57.5660555 33.8388426,55.4962006 L33.8388426,52.5038195 C33.8388426,50.4340893 35.509464,48.7633432 37.5793189,48.7633432 L44.7610335,48.7633432 L44.7610335,41.5816286 C44.7610335,39.5118984 46.4317796,37.8411523 48.5015098,37.8411523 L51.4938909,37.8411523 C53.5636211,37.8411523 55.2343672,39.5118984 55.2343672,41.5816286 L55.2343672,48.7633432 L62.4160818,48.7633432 C64.4859367,48.7633432 66.1565581,50.4340893 66.1565581,52.5038195 L66.1565581,55.4962006 L66.1565581,55.4962006 Z" id="Shape"></path>
                    <path d="M99.9954007,17.1438499 C99.9954007,15.0741196 98.3246546,13.4033735 96.2549244,13.4033735 L76.0314157,13.4033735 L76.0314157,3.80281761 C76.0314157,1.73308737 74.3607942,0.0623412723 72.2909393,0.0623412723 L27.7044614,0.0623412723 C25.6347312,0.0623412723 23.9639851,1.73308737 23.9639851,3.80281761 L23.9639851,13.4033735 L3.74047634,13.4033735 C1.6707461,13.4033735 0,15.0741196 0,17.1438499 L0,25.1235327 L99.9954007,25.1235327 L99.9954007,17.1438499 L99.9954007,17.1438499 Z M68.550463,13.4033735 L31.4449377,13.4033735 L31.4449377,7.54329394 L68.5379947,7.54329394 L68.5379947,13.4033735 L68.550463,13.4033735 L68.550463,13.4033735 Z" id="Shape"></path>
                </g>
            </g>
        </g>
    </g>
</svg>