<?xml version="1.0" encoding="iso-8859-1"?>
<svg xmlns="http://www.w3.org/2000/svg" xmlns:xlink="http://www.w3.org/1999/xlink" version="1.1" viewBox="0 0 463 463" enable-background="new 0 0 463 463" width="512px" height="512px">
  <g>
    <path d="M423.5,80h-384C17.72,80,0,97.72,0,119.5v224C0,365.28,17.72,383,39.5,383h384c21.78,0,39.5-17.72,39.5-39.5v-224   C463,97.72,445.28,80,423.5,80z M448,343.5c0,13.509-10.99,24.5-24.5,24.5h-384C25.99,368,15,357.009,15,343.5v-224   C15,105.991,25.99,95,39.5,95h384c13.51,0,24.5,10.991,24.5,24.5V343.5z" fill="#d6d6d6"/>
    <path d="m221.727,288.54c-1.526-9.165-8.328-16.583-17.327-18.897l-40.283-10.358v-14.141c14.906-10.309 24-27.417 24-45.644v-24c0-26.191-21.309-47.5-47.5-47.5h-16c-26.191,0-47.5,21.309-47.5,47.5v24c0,18.227 9.094,35.335 24,45.644v14.141l-40.282,10.358c-8.998,2.314-15.8,9.731-17.328,18.896l-3.183,19.098c-1.137,6.828 0.776,13.772 5.25,19.054 4.475,5.281 11.01,8.31 17.931,8.31h138.226c6.921,0 13.456-3.029 17.931-8.31 4.474-5.281 6.387-12.226 5.249-19.054l-3.184-19.097zm-13.512,28.454c-1.643,1.938-3.945,3.006-6.485,3.006h-138.226c-2.54,0-4.843-1.067-6.485-3.006-1.642-1.938-2.316-4.386-1.898-6.892l3.182-19.097c0.553-3.315 3.014-5.998 6.269-6.835l45.914-11.807c3.314-0.853 5.632-3.841 5.632-7.264v-24.074c0-2.676-1.426-5.148-3.74-6.49-12.497-7.239-20.26-20.664-20.26-35.036v-24c0-17.92 14.579-32.5 32.5-32.5h16c17.921,0 32.5,14.58 32.5,32.5v24c0,14.372-7.763,27.797-20.26,35.036-2.314,1.341-3.74,3.814-3.74,6.49v24.075c0,3.423 2.317,6.411 5.632,7.264l45.915,11.807c3.255,0.837 5.715,3.52 6.268,6.835l3.183,19.097c0.415,2.505-0.26,4.953-1.901,6.891z" fill="#d6d6d6"/>
    <path d="m255.5,151h96c4.143,0 7.5-3.358 7.5-7.5s-3.357-7.5-7.5-7.5h-96c-4.143,0-7.5,3.358-7.5,7.5s3.357,7.5 7.5,7.5z" fill="#d6d6d6"/>
    <path d="m415.5,168h-160c-4.143,0-7.5,3.358-7.5,7.5s3.357,7.5 7.5,7.5h160c4.143,0 7.5-3.358 7.5-7.5s-3.357-7.5-7.5-7.5z" fill="#d6d6d6"/>
    <path d="m383.5,248h-96c-4.143,0-7.5,3.358-7.5,7.5s3.357,7.5 7.5,7.5h96c4.143,0 7.5-3.358 7.5-7.5s-3.357-7.5-7.5-7.5z" fill="#d6d6d6"/>
    <path d="m383.5,280h-96c-4.143,0-7.5,3.358-7.5,7.5s3.357,7.5 7.5,7.5h96c4.143,0 7.5-3.358 7.5-7.5s-3.357-7.5-7.5-7.5z" fill="#d6d6d6"/>
    <path d="m407.5,208h-144c-8.547,0-15.5,6.953-15.5,15.5v96c0,8.547 6.953,15.5 15.5,15.5h144c8.547,0 15.5-6.953 15.5-15.5v-96c0-8.547-6.953-15.5-15.5-15.5zm.5,111.5c0,0.276-0.225,0.5-0.5,0.5h-144c-0.275,0-0.5-0.224-0.5-0.5v-96c0-0.276 0.225-0.5 0.5-0.5h144c0.275,0 0.5,0.224 0.5,0.5v96z" fill="#d6d6d6"/>
  </g>
</svg>
