<?xml version="1.0" encoding="UTF-8" standalone="no"?>
<svg width="489px" height="298px" viewBox="0 0 489 298" version="1.1" xmlns="http://www.w3.org/2000/svg" xmlns:xlink="http://www.w3.org/1999/xlink">
    <!-- Generator: Sketch 3.8.3 (29802) - http://www.bohemiancoding.com/sketch -->
    <title>Group 2</title>
    <desc>Created with Sketch.</desc>
    <defs></defs>
    <g id="Page-1" stroke="none" stroke-width="1" fill="none" fill-rule="evenodd">
        <g id="Group-2" transform="translate(0.000000, -76.000000)" fill="#47505B">
            <g id="socialisation" transform="translate(0.000000, 76.000000)">
                <g id="Page-1">
                    <g>
                        <g id="socialisation">
                            <g id="Page-1">
                                <g id="socialisation">
                                    <path d="M115.887276,104.650382 C121.553859,101.907885 60.5742756,158.775563 56.4051677,185.533431 C52.7891047,208.733467 54.992776,238.999755 122.966251,265.041115 C146.423864,274.026291 165.176341,274.35572 179.810761,271.053194 C184.226612,284.057403 197.18488,294.327351 213.537992,296.188625 C228.546781,297.901656 242.330362,291.988406 250.260175,282.014943 C265.320014,290.876583 287.765129,297.876949 321.245619,297.942834 C421.746643,298.148727 394.885677,225.287273 394.885677,225.287273 C394.885677,225.287273 363.727977,151.363411 363.727977,149.255065 C363.727977,147.14672 457.201077,218.435151 484.104586,133.442474 C511.016602,48.449798 414.92292,75.4053241 404.797944,75.8665247 C397.18294,76.2124251 353.81571,70.3815322 326.903693,42.9648055 C299.991677,15.5480788 281.588043,10.7466515 257.509318,10.0630864 C257.509318,10.0630864 226.351618,10.0630864 176.781776,29.2523243 C127.211935,48.4415623 93.2209431,25.1426978 79.0629927,10.0630864 C64.8965343,-5.0165251 -5.91023252,-11.8686478 1.16874248,62.1540435 C8.25622584,136.184971 110.220693,107.392878 115.887276,104.650382 L115.887276,104.650382 L115.887276,104.650382 L115.887276,104.650382 Z M236.272393,164.968827 C245.954934,167.89251 277.487003,171.046792 268.842485,184.849866 C258.649441,201.140129 235.557689,204.039104 229.18491,200.613043 C222.81213,197.186982 207.939477,184.166301 209.360376,170.45382 C210.772768,156.749574 236.272393,164.968827 236.272393,164.968827 L236.272393,164.968827 L236.272393,164.968827 L236.272393,164.968827 Z" id="Shape"></path>
                                </g>
                            </g>
                        </g>
                    </g>
                </g>
            </g>
        </g>
    </g>
</svg>