<?xml version="1.0" encoding="iso-8859-1"?>
<!-- Generator: Adobe Illustrator 17.1.0, SVG Export Plug-In . SVG Version: 6.00 Build 0)  -->
<!DOCTYPE svg PUBLIC "-//W3C//DTD SVG 1.1//EN" "http://www.w3.org/Graphics/SVG/1.1/DTD/svg11.dtd">
<svg version="1.1" id="Layer_1" xmlns="http://www.w3.org/2000/svg" xmlns:xlink="http://www.w3.org/1999/xlink" x="0px" y="0px"
	 viewBox="0 0 64 64" style="enable-background:new 0 0 64 64;" xml:space="preserve">
<path d="M57.5,28.375c0-4.418-3.582-8-8-8c-3.948,0-7.221,2.863-7.874,6.625H22.374c-0.653-3.762-3.925-6.625-7.874-6.625
	c-4.418,0-8,3.582-8,8c0,2.393,1.056,4.534,2.721,6c-1.665,1.466-2.721,3.607-2.721,6c0,4.418,3.582,8,8,8
	c3.861,0,7.083-2.736,7.834-6.375h19.332c0.751,3.639,3.973,6.375,7.834,6.375c4.418,0,8-3.582,8-8c0-2.393-1.056-4.534-2.721-6
	C56.444,32.909,57.5,30.768,57.5,28.375z"/>
</svg>
