<?xml version="1.0" encoding="UTF-8" standalone="no"?>
<svg width="47px" height="39px" viewBox="0 0 47 39" version="1.1" xmlns="http://www.w3.org/2000/svg" xmlns:xlink="http://www.w3.org/1999/xlink">
    <!-- Generator: Sketch 3.7.1 (28215) - http://www.bohemiancoding.com/sketch -->
    <title>pet32</title>
    <desc>Created with Sketch.</desc>
    <defs></defs>
    <g id="Page-1" stroke="none" stroke-width="1" fill="none" fill-rule="evenodd" opacity="0.42863806">
        <g id="pet32" fill="#000000">
            <g id="Layer_1">
                <path d="M24.9851161,6.40014894 C26.3674196,2.12093617 30.0653125,-0.533968085 33.2449464,0.470074468 C36.4237411,1.47411702 37.8803214,5.75706383 36.4980179,10.0362766 C35.1152946,14.3154894 31.4174018,16.9703936 28.2381875,15.9663511 C25.0589732,14.9623085 23.6023929,10.6793617 24.9851161,6.40014894 L24.9851161,6.40014894 Z M43.6180982,11.5643298 C40.7427054,10.6561277 37.3389821,13.2396702 36.0158482,17.3346702 C34.6927143,21.4296702 35.9516429,25.4856702 38.8270357,26.3938723 C41.7024286,27.3020745 45.1065714,24.7189468 46.4292857,20.6235319 C47.7528393,16.528117 46.4943304,12.4725319 43.6180982,11.5643298 L43.6180982,11.5643298 Z M19.0929107,16.255117 C22.1088839,15.350234 23.3409554,11.0506915 21.8461875,6.65032979 C20.3514196,2.24996809 16.6959107,-0.583340426 13.6799375,0.32112766 C10.6639643,1.22559574 9.43189286,5.5251383 10.9266607,9.92591489 C12.4214286,14.3262766 16.0781964,17.1595851 19.0929107,16.255117 L19.0929107,16.255117 Z M11.3572143,17.2857128 C9.92875,13.1035851 6.44277679,10.4084362 3.57032143,11.2643617 C0.697866071,12.121117 -0.4729375,16.2053298 0.955946429,20.3874574 C2.38483036,24.5695851 5.87038393,27.2643191 8.74283929,26.4088085 C11.614875,25.552883 12.7856786,21.4678404 11.3572143,17.2857128 L11.3572143,17.2857128 Z M23.8592143,17.6329787 L23.2368839,17.6329787 C23.2368839,17.6329787 10.9388304,19.4058191 10.998,33.4084787 C10.9593929,41.6312553 17.877625,37.9760426 17.877625,37.9760426 C17.877625,37.9760426 20.8008571,34.9925426 23.2368839,34.9925426 L23.8592143,34.8991915 C26.2952411,34.8991915 29.2184732,37.7893404 29.2184732,37.7893404 C29.2184732,37.7893404 36.1367054,41.6308404 36.0980982,33.4084787 C36.1564286,19.4058191 23.8592143,17.6329787 23.8592143,17.6329787 L23.8592143,17.6329787 Z" id="Shape"></path>
            </g>
        </g>
    </g>
</svg>