<?xml version="1.0" encoding="UTF-8" standalone="no"?>
<svg width="100px" height="94px" viewBox="0 0 100 94" version="1.1" xmlns="http://www.w3.org/2000/svg" xmlns:xlink="http://www.w3.org/1999/xlink">
    <!-- Generator: Sketch 39.1 (31720) - http://www.bohemiancoding.com/sketch -->
    <title>mother-and-child-with-balloons</title>
    <desc>Created with Sketch.</desc>
    <defs></defs>
    <g id="Page-1" stroke="none" stroke-width="1" fill="none" fill-rule="evenodd">
        <g id="mother-and-child-with-balloons" fill="#D6D6D6">
            <g id="Capa_1">
                <g id="Layer_5_30_">
                    <g id="Group">
                        <path d="M97.2292047,14.1295111 C94.4634796,12.1680861 90.6810587,12.7502873 88.4029271,15.961558 C86.4105054,18.7696005 87.103756,23.2223613 88.3506368,25.0484784 C88.3506368,25.0484784 88.4220643,25.1401211 88.2899909,25.1948373 C88.0687005,25.28648 86.7549744,26.00345 86.7549744,26.00345 C86.4083491,26.111265 86.3673793,26.3713688 86.6630621,26.5816081 L87.1355614,26.9169128 C87.1355614,26.9169128 87.2991708,27.0395524 87.20052,27.1786338 C86.2417748,28.5303648 78.2944593,39.9455508 74.7842714,44.9888684 C74.0643366,45.929285 74.2028789,45.0950662 74.2974866,44.5729719 C75.0376368,40.5021459 75.9481347,35.4941377 76.1610694,34.3224578 C76.1917967,34.1545359 76.423599,34.1909235 76.423599,34.1909235 L76.9637523,34.2893047 C77.3208896,34.3539937 77.47803,34.1429458 77.313073,33.8197702 C77.313073,33.8197702 76.9249389,32.3893343 76.8284444,32.1761301 C76.764564,32.0351619 76.8618671,32.0270758 76.8618671,32.0270758 C79.0866303,31.6675127 82.724579,29.0222709 83.3426286,25.6217848 C84.0471999,21.7482602 81.8192022,18.6359098 78.4834052,18.0294503 C75.1476081,17.4229907 71.9667951,19.5517985 71.2624934,23.4255926 C70.6466001,26.8131409 73.1594989,30.5535139 75.0624342,31.6801809 C75.0624342,31.6801809 75.1659367,31.7332798 75.0691727,31.838669 C74.9074501,32.0149466 74.020941,33.2211273 74.020941,33.2211273 C73.7524816,33.4653283 73.8252567,33.7186936 74.182394,33.7833827 L74.752466,33.8871546 C74.752466,33.8871546 74.9527324,33.9292025 74.9220052,34.0971244 C74.6419556,35.6378012 73.1859136,43.8147627 72.4376773,47.7629492 C72.4020983,47.9508169 71.7843182,48.2766878 71.3934887,48.7885396 C71.0420117,49.2486403 67.8671286,54.3946517 63.3089786,55.1601385 L52.1164306,55.1601385 C48.798423,54.6024652 45.9353949,51.9456333 45.1337901,49.9502466 C44.7796178,49.0680501 44.390136,48.0136191 43.9286876,47.0219904 L35.5393305,28.1732275 C34.9592856,26.9266162 34.4463556,25.2568309 32.0633739,25.2568309 L29.30277,25.2568309 L16.8927208,25.2568309 L14.0663498,25.2568309 C11.6898369,25.2568309 10.4496945,26.8050548 9.76992077,28.2001813 L1.28029566,46.8624241 C0.277346331,48.9203435 -0.928295257,51.4070972 1.10752207,52.416785 C3.14468709,53.4259337 5.02525078,52.5763512 6.02873918,50.5173537 L10.3243596,43.0535886 C10.3243596,43.0535886 10.5704474,42.61559 10.4782655,43.1004881 C9.90495909,46.1190395 5.40314246,61.0390226 5.40314246,61.0390226 C5.01797326,62.928481 6.28048728,64.4750876 8.20929819,64.4750876 L12.7960192,64.4750876 C13.1243159,64.4750876 13.0658263,64.7219841 13.0658263,64.7219841 L13.9415539,88.8283469 C13.9415539,91.8854421 14.9698397,93.4883821 17.3196683,93.4883821 C19.6684188,93.4883821 20.6977828,91.8854421 20.6977828,88.8283469 L21.5735104,64.6494785 C21.5735104,64.6494785 21.563807,64.4683492 21.7554483,64.4753572 C22.0026142,64.4831738 22.6282109,64.4764353 22.9082605,64.4764353 C23.0683658,64.4764353 23.04842,64.6691547 23.04842,64.6691547 L23.9241476,88.8286165 C23.9241476,91.8857117 24.9535116,93.4886517 27.3033402,93.4886517 C29.6520907,93.4886517 30.6814547,91.8857117 30.6814547,88.8286165 L31.5571823,64.7713094 C31.5571823,64.7713094 31.5291504,64.4753572 31.8817056,64.4753572 L36.8158605,64.4753572 C38.7444018,64.4753572 40.0376431,62.9228207 39.6896701,61.0260848 C39.6896701,61.0260848 35.1838104,45.4476214 34.7611755,42.7937544 C34.6401531,42.0331193 39.4069252,50.5723393 39.4069252,50.5723393 C40.1656735,52.2033112 41.8066183,52.0065488 42.5287094,53.0944025 C44.0931055,55.4501609 45.9388989,57.8738428 47.8264705,58.9983536 C50.8749406,60.8465728 50.9229182,60.0190924 51.2132102,62.6956005 L51.1636153,64.4907208 L50.1547361,72.0229484 C50.0940902,72.4752325 50.3067553,72.8679488 50.6652403,73.0574337 C50.7450234,73.0994815 50.9191447,73.1479983 50.917258,73.4116061 L50.4447586,90.4886984 C50.4019021,90.6493428 50.4447586,91.7778966 50.5361318,91.8210227 C50.8320841,92.7676386 51.691909,93.487843 52.7722156,93.487843 C53.804814,93.487843 54.7072258,92.8423005 55.0519644,91.9401583 C55.0034476,91.9075442 57.3831949,75.39109 57.7128394,75.39109 C58.1451777,75.39109 60.3737144,91.9401583 60.3737144,91.9401583 C60.7610399,92.8425701 61.6208647,93.487843 62.6534632,93.487843 C63.7391606,93.487843 64.5882039,92.7676386 64.932673,91.8210227 C64.932673,91.7778966 65.0186554,90.6490733 64.932673,90.4886984 L64.4890141,73.3757576 C64.4671816,73.1299393 64.6690652,73.074145 64.7504656,73.0245501 C65.0768756,72.8261704 65.2668996,72.4517827 65.209488,72.0226789 L64.2725754,65.0300655 L64.2119295,62.695331 C64.502491,60.0188229 64.5882039,60.8465728 67.5989387,58.998084 C70.7010467,57.1477086 73.8780861,50.9405277 74.0252536,50.0960664 C74.1907497,49.1459465 73.6883317,48.7650899 73.9988389,48.3217006 C76.2570248,45.0985702 87.1487688,29.4287335 88.2282668,27.907733 C88.3269175,27.7681125 88.5217932,27.8993773 88.5217932,27.8993773 L88.9694951,28.2174317 C89.2654474,28.4274014 89.4972497,28.3026055 89.4845814,27.9395384 C89.4845814,27.9395384 89.7384858,26.4797229 89.7414508,26.2454947 C89.7433375,26.0907802 89.8347108,26.1250114 89.8347108,26.1250114 C92.002332,26.7409048 96.4181661,25.8848535 98.4175959,23.0657599 C100.695188,19.8539501 99.9946602,16.090936 97.2292047,14.1295111 L97.2292047,14.1295111 Z" id="Shape"></path>
                        <ellipse id="Oval" cx="21.7178923" cy="10.7178923" rx="10.7178923" ry="10.7178923"></ellipse>
                        <path d="M57.978074,52.8696263 C61.2516078,52.8696263 63.9076311,50.202552 63.9076311,46.935487 C63.9076311,43.6347298 61.2516078,41 57.978074,41 C54.6611445,41 52,43.6347298 52,46.935487 C52.0002695,50.2028215 54.6611445,52.8696263 57.978074,52.8696263 L57.978074,52.8696263 Z" id="Shape"></path>
                    </g>
                </g>
            </g>
        </g>
    </g>
</svg>