<?xml version="1.0" encoding="UTF-8" standalone="no"?>
<svg width="197px" height="119px" viewBox="0 0 197 119" version="1.1" xmlns="http://www.w3.org/2000/svg" xmlns:xlink="http://www.w3.org/1999/xlink">
    <!-- Generator: Sketch 39.1 (31720) - http://www.bohemiancoding.com/sketch -->
    <title>dog39</title>
    <desc>Created with Sketch.</desc>
    <defs></defs>
    <g id="Page-1" stroke="none" stroke-width="1" fill="none" fill-rule="evenodd">
        <g id="dog39" fill="#D6D6D6">
            <g id="Layer_1">
                <path d="M63.3859738,64.23025 L57.0860653,64.23025 L57.0860653,86.89975 L63.3859738,86.89975 C66.6115572,86.89975 68.8615246,84.3683225 70.1320943,81.1945925 C70.8278826,79.4528193 71.1757767,76.9062788 71.1757767,74.5033118 C71.1757767,71.18223 70.6539355,68.6545808 69.6102532,66.875025 C68.5703523,65.0954693 66.494332,64.23025 63.3859738,64.23025 L63.3859738,64.23025 Z" id="Shape"></path>
                <path d="M97.6762322,62.8285193 C94.9724899,62.8285193 92.8170591,63.8259773 91.2061581,65.817115 C89.5952571,67.8082528 88.7898066,70.6419403 88.7898066,74.3181775 C88.7898066,77.9944148 89.5952571,80.8281023 91.2061581,82.81924 C92.8170591,84.8103778 94.9724899,85.8078358 97.6762322,85.8078358 C100.379974,85.8078358 102.524061,84.8103778 104.112273,82.81924 C105.700485,80.8281023 106.494592,77.9944148 106.494592,74.3181775 C106.494592,70.6570533 105.700485,67.827144 104.112273,65.8284498 C102.524061,63.8297555 100.379974,62.8285193 97.6762322,62.8285193 L97.6762322,62.8285193 Z" id="Shape"></path>
                <path d="M92.7300855,118.266781 L103.824882,118.33479 C103.824882,118.33479 188.665667,121.841006 195.861781,99.0694933 C198.384014,89.287604 194.663059,83.8884848 190.662277,83.4879903 C186.665276,83.0874958 188.586257,17.6708752 178.191029,12.8800543 C167.795802,8.08923325 142.286089,0 105.900903,0 L91.1305289,0 C54.745343,0 29.0579009,7.7907515 18.6626737,12.5853507 C8.26744646,17.37995 10.3661555,83.5937813 6.3691547,83.9942757 C2.37215392,84.3947702 -1.34880046,89.544525 1.16965037,99.322636 C8.36576436,122.094149 92.7300855,118.266781 92.7300855,118.266781 L92.7300855,118.266781 Z M108.377757,87.776304 C105.912247,90.315288 102.342551,91.58478 97.6762322,91.58478 C93.0099134,91.58478 89.4402173,90.315288 86.9747069,87.776304 C83.6659314,84.663026 82.0134344,80.174465 82.0134344,74.3181775 C82.0134344,68.340986 83.6697129,63.852425 86.9747069,60.860051 C89.4402173,58.321067 93.0099134,57.051575 97.6762322,57.051575 C102.342551,57.051575 105.912247,58.321067 108.377757,60.860051 C111.671407,63.8562033 113.320123,68.340986 113.320123,74.3181775 C113.320123,80.1782433 111.671407,84.663026 108.377757,87.776304 L108.377757,87.776304 Z M147.84105,90.678 L142.789022,90.678 L142.100797,86.6050465 C140.78485,88.1465725 139.605035,89.2347085 138.55379,89.8656763 C136.750035,90.9689253 134.537882,91.5205498 131.905987,91.5205498 C127.576218,91.5205498 124.032992,90.0243628 121.272528,87.0319888 C118.391057,84.0207235 116.950322,79.9062093 116.950322,74.6846678 C116.950322,69.4064525 118.406183,65.1710343 121.314124,61.9859695 C124.225847,58.8009048 128.071589,57.2064833 132.858915,57.2064833 C137.010955,57.2064833 140.342419,58.1472675 142.864652,60.2517528 C145.386884,62.356238 146.827619,64.23025 147.198202,68.0085 L140.486115,68.0085 C139.968055,64.23025 138.705048,64.3322628 136.697094,63.4481523 C135.574001,62.960758 134.32612,62.7718455 132.953451,62.7718455 C130.325338,62.7718455 128.162344,63.7881948 126.472033,65.771776 C124.781721,67.7478008 123.934674,70.743953 123.934674,74.7224503 C123.934674,78.7311735 124.849787,81.5686393 126.683794,83.2348475 C128.517801,84.9010558 130.597603,85.736049 132.930762,85.736049 C135.218544,85.736049 137.097929,85.4451238 138.557571,84.134071 C140.017214,82.8230183 140.917201,79.34325 141.257532,79.34325 L132.715219,79.34325 L132.715219,71.78675 L147.84105,71.78675 L147.84105,90.678 L147.84105,90.678 Z M23.1588269,21.4226775 C23.1588269,13.2314315 56.1860784,6.59304625 96.9275036,6.59304625 C137.668929,6.59304625 170.69618,13.2352098 170.69618,21.4226775 C170.69618,29.6101453 137.668929,36.2523088 96.9275036,36.2523088 C56.1860784,36.2523088 23.1588269,29.6139235 23.1588269,21.4226775 L23.1588269,21.4226775 Z M75.4942014,84.5912393 C73.1307903,88.6490798 69.4779022,90.678 64.5393184,90.678 L49.5231499,90.678 L49.5231499,56.67375 L64.5393184,56.67375 C66.5661797,56.67375 68.2489284,57.625869 69.5951274,58.0679242 C71.8866907,58.819796 73.7433864,60.542678 75.1614331,62.552707 C76.2996518,64.1773545 77.0748507,66.104262 77.490811,67.993387 C77.9029899,69.882512 78.1109701,71.7678587 78.1109701,73.479406 C78.1109701,77.816837 77.2412348,81.579974 75.4942014,84.5912393 L75.4942014,84.5912393 Z" id="Shape"></path>
            </g>
        </g>
    </g>
</svg>