<?xml version="1.0" encoding="iso-8859-1"?>
<!-- Generator: Adobe Illustrator 17.1.0, SVG Export Plug-In . SVG Version: 6.00 Build 0)  -->
<!DOCTYPE svg PUBLIC "-//W3C//DTD SVG 1.1//EN" "http://www.w3.org/Graphics/SVG/1.1/DTD/svg11.dtd">
<svg xmlns="http://www.w3.org/2000/svg" xmlns:xlink="http://www.w3.org/1999/xlink" version="1.1" id="Capa_1" x="0px" y="0px" viewBox="0 0 375.404 375.404" style="enable-background:new 0 0 375.404 375.404;" xml:space="preserve" width="512px" height="512px">
<path d="M241.847,100.018c24.602,0,44.617-20.016,44.617-44.617s-20.016-44.617-44.617-44.617S197.229,30.799,197.229,55.4  S217.245,100.018,241.847,100.018z M241.847,30.783c13.574,0,24.617,11.043,24.617,24.617s-11.043,24.617-24.617,24.617  S217.229,68.975,217.229,55.4S228.272,30.783,241.847,30.783z M133.556,100.018c24.602,0,44.618-20.016,44.618-44.617  s-20.016-44.617-44.618-44.617c-24.603,0-44.618,20.016-44.618,44.617S108.953,100.018,133.556,100.018z M133.556,30.783  c13.574,0,24.618,11.043,24.618,24.617s-11.043,24.617-24.618,24.617S108.938,68.975,108.938,55.4S119.981,30.783,133.556,30.783z   M187.703,115.354c-68.725,0-124.636,55.911-124.636,124.635c0,68.723,55.911,124.633,124.636,124.633  c68.724,0,124.634-55.91,124.634-124.633C312.337,171.265,256.427,115.354,187.703,115.354z M187.703,344.621  c-57.696,0-104.636-46.938-104.636-104.633c0-57.696,46.939-104.635,104.636-104.635c57.695,0,104.634,46.938,104.634,104.635  C292.337,297.683,245.398,344.621,187.703,344.621z M89.233,115.325c0-24.602-20.015-44.617-44.616-44.617  C20.016,70.708,0,90.724,0,115.325s20.016,44.617,44.618,44.617C69.219,159.942,89.233,139.927,89.233,115.325z M44.618,139.942  C31.043,139.942,20,128.899,20,115.325s11.043-24.617,24.618-24.617c13.573,0,24.616,11.043,24.616,24.617  S58.191,139.942,44.618,139.942z M330.786,70.708c-24.601,0-44.615,20.016-44.615,44.617s20.015,44.617,44.615,44.617  c24.603,0,44.618-20.016,44.618-44.617S355.389,70.708,330.786,70.708z M330.786,139.942c-13.573,0-24.615-11.043-24.615-24.617  s11.042-24.617,24.615-24.617c13.574,0,24.618,11.043,24.618,24.617S344.36,139.942,330.786,139.942z M249.927,209.878H217.81  v-32.114c0-5.522-4.478-10-10-10h-40.215c-5.523,0-10,4.478-10,10v32.114h-32.117c-5.523,0-10,4.478-10,10v40.22  c0,5.522,4.477,10,10,10h32.117v32.114c0,5.522,4.477,10,10,10h40.215c5.522,0,10-4.478,10-10v-32.114h32.117  c5.522,0,10-4.478,10-10v-40.22C259.927,214.355,255.449,209.878,249.927,209.878z M239.927,250.098H207.81c-5.522,0-10,4.478-10,10  v32.114h-20.215v-32.114c0-5.522-4.477-10-10-10h-32.117v-20.22h32.117c5.523,0,10-4.478,10-10v-32.114h20.215v32.114  c0,5.522,4.478,10,10,10h32.117V250.098z" fill="#d6d6d6"/>
</svg>
